# xmcd
#
# Track frame offsets:
#	150
#	20865
#	42282
#	63005
#	77540
#
# Disc length: 1317 seconds
#
# Revision: 1
# Processed by: cddbd v1.5.1PL0 Copyright (c) Steve Scherf et al.
# Submitted via: CDex 1.50Beta5
#
DISCID=34052305
DTITLE=岩本　公水 - 絹の雨
DYEAR=2003
DGENRE=Pop
TTITLE0=絹の雨
TTITLE1=風の絶唱
TTITLE2=絹の雨 オリジナル・カラオケ
TTITLE3=絹の雨 一般用カラオケ
TTITLE4=風の絶唱 オリジナル・カラオケ
EXTD=
EXTT0=
EXTT1=
EXTT2=
EXTT3=
EXTT4=
PLAYORDER=
